<svg width="89" height="16" viewBox="0 0 89 16" fill="none" xmlns="http://www.w3.org/2000/svg">
<g clip-path="url(#clip0_288_168)">
<path d="M4.17587 1.01653L4.53756 3.54537L4.4718 3.34832C5.04174 2.38494 5.75415 1.64053 6.60906 1.11506C7.46396 0.567699 8.49421 0.294006 9.69983 0.294006C10.489 0.294006 11.1795 0.403488 11.7713 0.622427C12.3851 0.841366 12.9003 1.16979 13.3168 1.60769C13.7332 2.02368 14.0183 2.57107 14.1717 3.24979L14.0073 3.28264C14.621 2.38494 15.3554 1.66242 16.2103 1.11506C17.0871 0.567699 17.9968 0.294006 18.9394 0.294006C20.3642 0.294006 21.4931 0.699067 22.3261 1.50916C23.181 2.29737 23.6195 3.32643 23.6413 4.59632V15.3685H19.0709V6.50116C19.049 5.86621 18.9504 5.35169 18.775 4.95758C18.5996 4.54159 18.1941 4.3117 17.5584 4.2679C16.8131 4.2679 16.1773 4.53064 15.6513 5.05611C15.1471 5.5597 14.7635 6.21654 14.5005 7.02664C14.2593 7.81485 14.1387 8.63588 14.1387 9.48978V15.3685H9.53543V6.50116C9.51351 5.86621 9.39294 5.35169 9.1738 4.95758C8.97649 4.54159 8.55995 4.3117 7.92429 4.2679C7.20091 4.2679 6.58714 4.53064 6.08296 5.05611C5.60072 5.5597 5.22806 6.20559 4.96501 6.9938C4.72388 7.78201 4.60332 8.59209 4.60332 9.42409V15.3685H0V1.01653H4.17587ZM25.6234 8.0119C25.6234 6.54496 25.9633 5.23128 26.6427 4.07085C27.3443 2.91042 28.3196 2.0018 29.5692 1.34495C30.8186 0.666225 32.2544 0.326848 33.8765 0.326848C35.5206 0.326848 36.9455 0.666225 38.151 1.34495C39.3566 2.0018 40.2773 2.91042 40.9131 4.07085C41.5706 5.23128 41.8994 6.54496 41.8994 8.0119C41.8994 9.47883 41.5706 10.8035 40.9131 11.9858C40.2773 13.1462 39.3566 14.0658 38.151 14.7445C36.9455 15.4233 35.4987 15.7626 33.8108 15.7626C32.2325 15.7626 30.8186 15.4561 29.5692 14.843C28.3415 14.23 27.3772 13.3433 26.6757 12.1828C25.9741 11.0224 25.6234 9.63209 25.6234 8.0119ZM30.2597 8.04474C30.2597 8.78915 30.413 9.46788 30.7199 10.0809C31.0269 10.6721 31.4434 11.1428 31.9695 11.4931C32.4956 11.8435 33.0874 12.0186 33.745 12.0186C34.4684 12.0186 35.0931 11.8435 35.6192 11.4931C36.1453 11.1428 36.551 10.6721 36.8358 10.0809C37.1207 9.46788 37.2633 8.78915 37.2633 8.04474C37.2633 7.27842 37.1207 6.59969 36.8358 6.00853C36.551 5.41737 36.1453 4.94663 35.6192 4.59632C35.0931 4.24601 34.4684 4.07085 33.745 4.07085C33.0874 4.07085 32.4956 4.24601 31.9695 4.59632C31.4434 4.94663 31.0269 5.41737 30.7199 6.00853C30.413 6.59969 30.2597 7.27842 30.2597 8.04474ZM48.0577 1.01653L48.4194 3.57822L48.3536 3.34832C48.8579 2.45063 49.5702 1.7281 50.4909 1.18074C51.4115 0.611471 52.5406 0.326848 53.8776 0.326848C55.2368 0.326848 56.3655 0.73191 57.2644 1.54201C58.185 2.33022 58.6564 3.35928 58.6782 4.62916V15.3685H54.0749V6.33695C54.0531 5.702 53.8776 5.19843 53.5488 4.82622C53.2418 4.43211 52.7157 4.23506 51.9705 4.23506C51.269 4.23506 50.6553 4.46495 50.1292 4.92474C49.6031 5.38453 49.1974 6.00853 48.9126 6.79674C48.6278 7.58495 48.4851 8.49357 48.4851 9.52262V15.3685H43.8818V1.01653H48.0577ZM60.6428 8.0119C60.6428 6.54496 60.9827 5.23128 61.6621 4.07085C62.3637 2.91042 63.339 2.0018 64.5886 1.34495C65.838 0.666225 67.2738 0.326848 68.8959 0.326848C70.54 0.326848 71.9649 0.666225 73.1704 1.34495C74.376 2.0018 75.2967 2.91042 75.9325 4.07085C76.59 5.23128 76.9188 6.54496 76.9188 8.0119C76.9188 9.47883 76.59 10.8035 75.9325 11.9858C75.2967 13.1462 74.376 14.0658 73.1704 14.7445C71.9649 15.4233 70.5181 15.7626 68.8302 15.7626C67.2519 15.7626 65.838 15.4561 64.5886 14.843C63.3609 14.23 62.3966 13.3433 61.6951 12.1828C60.9935 11.0224 60.6428 9.63209 60.6428 8.0119ZM65.2791 8.04474C65.2791 8.78915 65.4324 9.46788 65.7393 10.0809C66.0463 10.6721 66.4628 11.1428 66.9889 11.4931C67.515 11.8435 68.1068 12.0186 68.7644 12.0186C69.4878 12.0186 70.1125 11.8435 70.6386 11.4931C71.1647 11.1428 71.5704 10.6721 71.8552 10.0809C72.1401 9.46788 72.2827 8.78915 72.2827 8.04474C72.2827 7.27842 72.1401 6.59969 71.8552 6.00853C71.5704 5.41737 71.1647 4.94663 70.6386 4.59632C70.1125 4.24601 69.4878 4.07085 68.7644 4.07085C68.1068 4.07085 67.515 4.24601 66.9889 4.59632C66.4628 4.94663 66.0463 5.41737 65.7393 6.00853C65.4324 6.59969 65.2791 7.27842 65.2791 8.04474Z" fill="#2A2F39"/>
<path d="M88.3115 11.7763C88.3115 9.65076 86.5869 7.92761 84.4585 7.92761C82.3306 7.92761 80.6055 9.65076 80.6055 11.7763C80.6055 13.9019 82.3306 15.625 84.4585 15.625C86.5869 15.625 88.3115 13.9019 88.3115 11.7763Z" fill="#F46D0B"/>
</g>
<defs>
<clipPath id="clip0_288_168">
<rect width="89" height="16" fill="white"/>
</clipPath>
</defs>
</svg>
